<svg width="24" height="24" viewBox="0 0 24 24" fill="none" xmlns="http://www.w3.org/2000/svg">
<path d="M2 5C2 3.34315 3.34315 2 5 2H19C20.6569 2 22 3.34315 22 5V11C22 12.6569 20.6569 14 19 14H5C3.34315 14 2 12.6569 2 11V5ZM5 4C4.44772 4 4 4.44772 4 5V11C4 11.5523 4.44772 12 5 12H19C19.5523 12 20 11.5523 20 11V5C20 4.44772 19.5523 4 19 4H5ZM5 16H18C18.5523 16 19 16.4477 19 17C19 17.5523 18.5523 18 18 18H5C4.44772 18 4 17.5523 4 17C4 16.4477 4.44772 16 5 16ZM5 20H15C15.5523 20 16 20.4477 16 21C16 21.5523 15.5523 22 15 22H5C4.44772 22 4 21.5523 4 21C4 20.4477 4.44772 20 5 20Z" fill="black"/>
</svg>
